<?xml version="1.0" encoding="UTF-8"?>
<svg xmlns="http://www.w3.org/2000/svg" xmlns:xlink="http://www.w3.org/1999/xlink" width="18px" height="18px" viewBox="0 0 18 18" version="1.1">
<g id="surface1">
<path style=" stroke:none;fill-rule:nonzero;fill:rgb(58.431375%,74.901962%,27.450982%);fill-opacity:1;" d="M 15.734375 3.535156 C 15.71875 3.445312 15.628906 3.394531 15.554688 3.390625 C 15.480469 3.382812 13.910156 3.28125 13.910156 3.28125 C 13.910156 3.28125 12.820312 2.332031 12.703125 2.226562 C 12.582031 2.121094 12.347656 2.15625 12.257812 2.179688 C 12.242188 2.183594 12.019531 2.242188 11.648438 2.34375 C 11.28125 1.425781 10.640625 0.582031 9.507812 0.582031 C 9.476562 0.582031 9.445312 0.582031 9.414062 0.582031 C 9.09375 0.210938 8.695312 0.046875 8.351562 0.046875 C 5.714844 0.046875 4.457031 2.933594 4.0625 4.402344 C 3.039062 4.679688 2.3125 4.878906 2.21875 4.902344 C 1.648438 5.0625 1.628906 5.078125 1.554688 5.546875 C 1.5 5.90625 0.00390625 16.042969 0.00390625 16.042969 L 11.652344 17.957031 L 17.964844 16.757812 C 17.964844 16.757812 15.746094 3.625 15.734375 3.535156 Z M 11.003906 2.519531 L 10.015625 2.785156 C 10.019531 2.722656 10.019531 2.664062 10.019531 2.597656 C 10.019531 2.027344 9.925781 1.566406 9.78125 1.203125 C 10.367188 1.269531 10.753906 1.847656 11.003906 2.519531 Z M 9.058594 1.316406 C 9.222656 1.671875 9.328125 2.183594 9.328125 2.871094 C 9.328125 2.90625 9.328125 2.941406 9.328125 2.972656 C 8.683594 3.148438 7.988281 3.335938 7.289062 3.527344 C 7.683594 2.199219 8.417969 1.558594 9.058594 1.316406 Z M 8.277344 0.667969 C 8.390625 0.667969 8.503906 0.703125 8.613281 0.765625 C 7.769531 1.117188 6.867188 1.992188 6.484375 3.746094 L 4.875 4.179688 C 5.324219 2.84375 6.386719 0.667969 8.277344 0.667969 Z M 8.277344 0.667969 "/>
<path style=" stroke:none;fill-rule:nonzero;fill:rgb(36.862746%,55.686277%,24.313726%);fill-opacity:1;" d="M 15.554688 3.390625 C 15.480469 3.382812 13.910156 3.28125 13.910156 3.28125 C 13.910156 3.28125 12.820312 2.332031 12.703125 2.226562 C 12.65625 2.1875 12.597656 2.167969 12.53125 2.160156 L 11.652344 17.957031 L 17.964844 16.757812 C 17.964844 16.757812 15.746094 3.625 15.734375 3.535156 C 15.71875 3.445312 15.628906 3.394531 15.554688 3.390625 "/>
<path style=" stroke:none;fill-rule:nonzero;fill:rgb(100%,100%,100%);fill-opacity:1;" d="M 9.507812 6.445312 L 8.730469 8.476562 C 8.730469 8.476562 8.050781 8.15625 7.214844 8.15625 C 5.988281 8.15625 5.925781 8.832031 5.925781 9 C 5.925781 9.929688 8.683594 10.285156 8.683594 12.457031 C 8.683594 14.164062 7.445312 15.261719 5.78125 15.261719 C 3.78125 15.261719 2.757812 14.171875 2.757812 14.171875 L 3.292969 12.621094 C 3.292969 12.621094 4.34375 13.414062 5.230469 13.414062 C 5.8125 13.414062 6.046875 13.011719 6.046875 12.71875 C 6.046875 11.511719 3.785156 11.457031 3.785156 9.46875 C 3.785156 7.796875 5.15625 6.179688 7.917969 6.179688 C 8.984375 6.179688 9.507812 6.445312 9.507812 6.445312 "/>
</g>
</svg>
